<?xml version="1.0" encoding="UTF-8" standalone="no"?>
<!DOCTYPE svg PUBLIC "-//W3C//DTD SVG 1.1//EN"
 "http://www.w3.org/Graphics/SVG/1.1/DTD/svg11.dtd">
<!-- Generated by graphviz version 2.43.0 (0)
 -->
<!-- Title: %3 Pages: 1 -->
<svg width="1103pt" height="325pt"
 viewBox="0.00 0.00 1103.00 325.00" xmlns="http://www.w3.org/2000/svg" xmlns:xlink="http://www.w3.org/1999/xlink">
<g id="graph0" class="graph" transform="scale(1 1) rotate(0) translate(4 321)">
<title>%3</title>
<polygon fill="white" stroke="transparent" points="-4,4 -4,-321 1099,-321 1099,4 -4,4"/>
<g id="clust1" class="cluster">
<title>cluster_lvl_0</title>
<polygon fill="none" stroke="black" points="8,-8 8,-309 116,-309 116,-8 8,-8"/>
<text text-anchor="middle" x="62" y="-293.8" font-family="Times,serif" font-size="14.00">Level 0</text>
</g>
<g id="clust2" class="cluster">
<title>cluster_lvl_1</title>
<polygon fill="none" stroke="black" points="136,-26 136,-261 294,-261 294,-26 136,-26"/>
<text text-anchor="middle" x="215" y="-245.8" font-family="Times,serif" font-size="14.00">Level 1</text>
</g>
<g id="clust3" class="cluster">
<title>cluster_lvl_2</title>
<polygon fill="none" stroke="black" points="404,-26 404,-190 602,-190 602,-26 404,-26"/>
<text text-anchor="middle" x="503" y="-174.8" font-family="Times,serif" font-size="14.00">Level 2</text>
</g>
<g id="clust4" class="cluster">
<title>cluster_lvl_3</title>
<polygon fill="none" stroke="black" points="712,-63 712,-156 917,-156 917,-63 712,-63"/>
<text text-anchor="middle" x="814.5" y="-140.8" font-family="Times,serif" font-size="14.00">Level 3</text>
</g>
<!-- leaf_0 -->
<g id="node1" class="node">
<title>leaf_0</title>
<polygon fill="lightyellow" stroke="lightyellow" points="108,-278 16,-278 16,-240 108,-240 108,-278"/>
<text text-anchor="middle" x="62" y="-262.8" font-family="Times,serif" font-size="14.00">leaf_0</text>
<text text-anchor="middle" x="62" y="-247.8" font-family="Times,serif" font-size="14.00">(0 &#45; &lt;&lt; 0))</text>
</g>
<!-- add_l1_0 -->
<g id="node6" class="node">
<title>add_l1_0</title>
<polygon fill="lightyellow" stroke="lightyellow" points="286,-229.5 144,-229.5 144,-176.5 286,-176.5 286,-229.5"/>
<text text-anchor="middle" x="215" y="-214.3" font-family="Times,serif" font-size="14.00">add_l1_0</text>
<text text-anchor="middle" x="215" y="-199.3" font-family="Times,serif" font-size="14.00">add(leaf_0,leaf_1)</text>
<text text-anchor="middle" x="215" y="-184.3" font-family="Times,serif" font-size="14.00">[REG S0]</text>
</g>
<!-- leaf_0&#45;&gt;add_l1_0 -->
<g id="edge1" class="edge">
<title>leaf_0&#45;&gt;add_l1_0</title>
<path fill="none" stroke="black" d="M108.3,-242.2C116.53,-239.15 125.34,-235.88 134.22,-232.59"/>
<polygon fill="black" stroke="black" points="135.71,-235.77 143.87,-229.01 133.27,-229.21 135.71,-235.77"/>
</g>
<!-- leaf_1 -->
<g id="node2" class="node">
<title>leaf_1</title>
<polygon fill="lightyellow" stroke="lightyellow" points="91.5,-222 32.5,-222 32.5,-184 91.5,-184 91.5,-222"/>
<text text-anchor="middle" x="62" y="-206.8" font-family="Times,serif" font-size="14.00">leaf_1</text>
<text text-anchor="middle" x="62" y="-191.8" font-family="Times,serif" font-size="14.00">&lt;&lt; 2)</text>
</g>
<!-- leaf_1&#45;&gt;add_l1_0 -->
<g id="edge2" class="edge">
<title>leaf_1&#45;&gt;add_l1_0</title>
<path fill="none" stroke="black" d="M91.76,-203C103.85,-203 118.59,-203 133.59,-203"/>
<polygon fill="black" stroke="black" points="133.98,-206.5 143.98,-203 133.98,-199.5 133.98,-206.5"/>
</g>
<!-- leaf_2 -->
<g id="node3" class="node">
<title>leaf_2</title>
<polygon fill="lightyellow" stroke="lightyellow" points="108,-166 16,-166 16,-128 108,-128 108,-166"/>
<text text-anchor="middle" x="62" y="-150.8" font-family="Times,serif" font-size="14.00">leaf_2</text>
<text text-anchor="middle" x="62" y="-135.8" font-family="Times,serif" font-size="14.00">(0 &#45; &lt;&lt; 5))</text>
</g>
<!-- add_l1_1 -->
<g id="node7" class="node">
<title>add_l1_1</title>
<polygon fill="lightyellow" stroke="lightyellow" points="286,-158.5 144,-158.5 144,-105.5 286,-105.5 286,-158.5"/>
<text text-anchor="middle" x="215" y="-143.3" font-family="Times,serif" font-size="14.00">add_l1_1</text>
<text text-anchor="middle" x="215" y="-128.3" font-family="Times,serif" font-size="14.00">add(leaf_2,leaf_3)</text>
<text text-anchor="middle" x="215" y="-113.3" font-family="Times,serif" font-size="14.00">[REG S0]</text>
</g>
<!-- leaf_2&#45;&gt;add_l1_1 -->
<g id="edge3" class="edge">
<title>leaf_2&#45;&gt;add_l1_1</title>
<path fill="none" stroke="black" d="M108.3,-142.5C116.36,-141.7 124.96,-140.84 133.65,-139.98"/>
<polygon fill="black" stroke="black" points="134.26,-143.44 143.87,-138.97 133.57,-136.47 134.26,-143.44"/>
</g>
<!-- leaf_3 -->
<g id="node4" class="node">
<title>leaf_3</title>
<polygon fill="lightyellow" stroke="lightyellow" points="91.5,-110 32.5,-110 32.5,-72 91.5,-72 91.5,-110"/>
<text text-anchor="middle" x="62" y="-94.8" font-family="Times,serif" font-size="14.00">leaf_3</text>
<text text-anchor="middle" x="62" y="-79.8" font-family="Times,serif" font-size="14.00">&lt;&lt; 8)</text>
</g>
<!-- leaf_3&#45;&gt;add_l1_1 -->
<g id="edge4" class="edge">
<title>leaf_3&#45;&gt;add_l1_1</title>
<path fill="none" stroke="black" d="M91.76,-98.81C103.97,-102.12 118.88,-106.17 134.02,-110.28"/>
<polygon fill="black" stroke="black" points="133.41,-113.75 143.98,-112.99 135.25,-106.99 133.41,-113.75"/>
</g>
<!-- leaf_4 -->
<g id="node5" class="node">
<title>leaf_4</title>
<polygon fill="lightyellow" stroke="lightyellow" points="96,-54 28,-54 28,-16 96,-16 96,-54"/>
<text text-anchor="middle" x="62" y="-38.8" font-family="Times,serif" font-size="14.00">leaf_4</text>
<text text-anchor="middle" x="62" y="-23.8" font-family="Times,serif" font-size="14.00">&lt;&lt; 10)</text>
</g>
<!-- copy_l1_2 -->
<g id="node8" class="node">
<title>copy_l1_2</title>
<polygon fill="lightyellow" stroke="lightyellow" points="266,-87.5 164,-87.5 164,-34.5 266,-34.5 266,-87.5"/>
<text text-anchor="middle" x="215" y="-72.3" font-family="Times,serif" font-size="14.00">copy_l1_2</text>
<text text-anchor="middle" x="215" y="-57.3" font-family="Times,serif" font-size="14.00">copy(leaf_4)</text>
<text text-anchor="middle" x="215" y="-42.3" font-family="Times,serif" font-size="14.00">[REG S0]</text>
</g>
<!-- leaf_4&#45;&gt;copy_l1_2 -->
<g id="edge5" class="edge">
<title>leaf_4&#45;&gt;copy_l1_2</title>
<path fill="none" stroke="black" d="M96.14,-40.71C112.99,-43.61 134.01,-47.23 153.62,-50.6"/>
<polygon fill="black" stroke="black" points="153.26,-54.09 163.71,-52.34 154.45,-47.19 153.26,-54.09"/>
</g>
<!-- add_l1_0_reg_s0_l1 -->
<g id="node12" class="node">
<title>add_l1_0_reg_s0_l1</title>
<polygon fill="lightgrey" stroke="lightgrey" points="376,-214 322,-214 322,-176 376,-176 376,-214"/>
<text text-anchor="middle" x="349" y="-198.8" font-family="Times,serif" font-size="14.00">REG</text>
<text text-anchor="middle" x="349" y="-183.8" font-family="Times,serif" font-size="14.00">S0</text>
</g>
<!-- add_l1_0&#45;&gt;add_l1_0_reg_s0_l1 -->
<g id="edge6" class="edge">
<title>add_l1_0&#45;&gt;add_l1_0_reg_s0_l1</title>
<path fill="none" stroke="black" d="M286.25,-198.74C295.07,-198.21 303.79,-197.68 311.77,-197.2"/>
<polygon fill="black" stroke="black" points="312.02,-200.69 321.79,-196.59 311.59,-193.7 312.02,-200.69"/>
</g>
<!-- add_l1_1_reg_s0_l1 -->
<g id="node13" class="node">
<title>add_l1_1_reg_s0_l1</title>
<polygon fill="lightgrey" stroke="lightgrey" points="376,-151 322,-151 322,-113 376,-113 376,-151"/>
<text text-anchor="middle" x="349" y="-135.8" font-family="Times,serif" font-size="14.00">REG</text>
<text text-anchor="middle" x="349" y="-120.8" font-family="Times,serif" font-size="14.00">S0</text>
</g>
<!-- add_l1_1&#45;&gt;add_l1_1_reg_s0_l1 -->
<g id="edge8" class="edge">
<title>add_l1_1&#45;&gt;add_l1_1_reg_s0_l1</title>
<path fill="none" stroke="black" d="M286.25,-132C295.07,-132 303.79,-132 311.77,-132"/>
<polygon fill="black" stroke="black" points="311.79,-135.5 321.79,-132 311.79,-128.5 311.79,-135.5"/>
</g>
<!-- copy_l1_2_reg_s0_l1 -->
<g id="node14" class="node">
<title>copy_l1_2_reg_s0_l1</title>
<polygon fill="lightgrey" stroke="lightgrey" points="376,-80 322,-80 322,-42 376,-42 376,-80"/>
<text text-anchor="middle" x="349" y="-64.8" font-family="Times,serif" font-size="14.00">REG</text>
<text text-anchor="middle" x="349" y="-49.8" font-family="Times,serif" font-size="14.00">S0</text>
</g>
<!-- copy_l1_2&#45;&gt;copy_l1_2_reg_s0_l1 -->
<g id="edge10" class="edge">
<title>copy_l1_2&#45;&gt;copy_l1_2_reg_s0_l1</title>
<path fill="none" stroke="black" d="M266.28,-61C281.38,-61 297.64,-61 311.65,-61"/>
<polygon fill="black" stroke="black" points="311.86,-64.5 321.86,-61 311.86,-57.5 311.86,-64.5"/>
</g>
<!-- add_l2_0 -->
<g id="node9" class="node">
<title>add_l2_0</title>
<polygon fill="lightyellow" stroke="lightyellow" points="594,-158.5 412,-158.5 412,-105.5 594,-105.5 594,-158.5"/>
<text text-anchor="middle" x="503" y="-143.3" font-family="Times,serif" font-size="14.00">add_l2_0</text>
<text text-anchor="middle" x="503" y="-128.3" font-family="Times,serif" font-size="14.00">add(add_l1_0,add_l1_1)</text>
<text text-anchor="middle" x="503" y="-113.3" font-family="Times,serif" font-size="14.00">[REG S1]</text>
</g>
<!-- add_l2_0_reg_s1_l2 -->
<g id="node15" class="node">
<title>add_l2_0_reg_s1_l2</title>
<polygon fill="lightgrey" stroke="lightgrey" points="684,-147 630,-147 630,-109 684,-109 684,-147"/>
<text text-anchor="middle" x="657" y="-131.8" font-family="Times,serif" font-size="14.00">REG</text>
<text text-anchor="middle" x="657" y="-116.8" font-family="Times,serif" font-size="14.00">S1</text>
</g>
<!-- add_l2_0&#45;&gt;add_l2_0_reg_s1_l2 -->
<g id="edge12" class="edge">
<title>add_l2_0&#45;&gt;add_l2_0_reg_s1_l2</title>
<path fill="none" stroke="black" d="M594.18,-129.63C603.14,-129.39 611.83,-129.16 619.73,-128.95"/>
<polygon fill="black" stroke="black" points="620.05,-132.45 629.96,-128.69 619.87,-125.45 620.05,-132.45"/>
</g>
<!-- copy_l2_1 -->
<g id="node10" class="node">
<title>copy_l2_1</title>
<polygon fill="lightyellow" stroke="lightyellow" points="567.5,-87.5 438.5,-87.5 438.5,-34.5 567.5,-34.5 567.5,-87.5"/>
<text text-anchor="middle" x="503" y="-72.3" font-family="Times,serif" font-size="14.00">copy_l2_1</text>
<text text-anchor="middle" x="503" y="-57.3" font-family="Times,serif" font-size="14.00">copy(copy_l1_2)</text>
<text text-anchor="middle" x="503" y="-42.3" font-family="Times,serif" font-size="14.00">[REG S1]</text>
</g>
<!-- copy_l2_1_reg_s1_l2 -->
<g id="node16" class="node">
<title>copy_l2_1_reg_s1_l2</title>
<polygon fill="lightgrey" stroke="lightgrey" points="684,-87 630,-87 630,-49 684,-49 684,-87"/>
<text text-anchor="middle" x="657" y="-71.8" font-family="Times,serif" font-size="14.00">REG</text>
<text text-anchor="middle" x="657" y="-56.8" font-family="Times,serif" font-size="14.00">S1</text>
</g>
<!-- copy_l2_1&#45;&gt;copy_l2_1_reg_s1_l2 -->
<g id="edge14" class="edge">
<title>copy_l2_1&#45;&gt;copy_l2_1_reg_s1_l2</title>
<path fill="none" stroke="black" d="M567.58,-63.93C585.3,-64.74 603.93,-65.6 619.51,-66.32"/>
<polygon fill="black" stroke="black" points="619.6,-69.83 629.75,-66.79 619.92,-62.83 619.6,-69.83"/>
</g>
<!-- add_l3_0 -->
<g id="node11" class="node">
<title>add_l3_0</title>
<polygon fill="lightyellow" stroke="lightyellow" points="909,-124.5 720,-124.5 720,-71.5 909,-71.5 909,-124.5"/>
<text text-anchor="middle" x="814.5" y="-109.3" font-family="Times,serif" font-size="14.00">add_l3_0</text>
<text text-anchor="middle" x="814.5" y="-94.3" font-family="Times,serif" font-size="14.00">add(add_l2_0,copy_l2_1)</text>
<text text-anchor="middle" x="814.5" y="-79.3" font-family="Times,serif" font-size="14.00">[REG S4]</text>
</g>
<!-- add_l3_0_reg_s4_l3 -->
<g id="node18" class="node">
<title>add_l3_0_reg_s4_l3</title>
<polygon fill="lightgrey" stroke="lightgrey" points="999,-117 945,-117 945,-79 999,-79 999,-117"/>
<text text-anchor="middle" x="972" y="-101.8" font-family="Times,serif" font-size="14.00">REG</text>
<text text-anchor="middle" x="972" y="-86.8" font-family="Times,serif" font-size="14.00">S4</text>
</g>
<!-- add_l3_0&#45;&gt;add_l3_0_reg_s4_l3 -->
<g id="edge16" class="edge">
<title>add_l3_0&#45;&gt;add_l3_0_reg_s4_l3</title>
<path fill="none" stroke="black" d="M909.1,-98C918.12,-98 926.84,-98 934.75,-98"/>
<polygon fill="black" stroke="black" points="934.99,-101.5 944.99,-98 934.99,-94.5 934.99,-101.5"/>
</g>
<!-- add_l1_0_reg_s0_l1&#45;&gt;add_l2_0 -->
<g id="edge7" class="edge">
<title>add_l1_0_reg_s0_l1&#45;&gt;add_l2_0</title>
<path fill="none" stroke="black" d="M376.13,-184.17C390.72,-178.12 409.71,-170.25 428.5,-162.46"/>
<polygon fill="black" stroke="black" points="430.08,-165.6 437.98,-158.53 427.4,-159.13 430.08,-165.6"/>
</g>
<!-- add_l1_1_reg_s0_l1&#45;&gt;add_l2_0 -->
<g id="edge9" class="edge">
<title>add_l1_1_reg_s0_l1&#45;&gt;add_l2_0</title>
<path fill="none" stroke="black" d="M376.13,-132C383.67,-132 392.39,-132 401.64,-132"/>
<polygon fill="black" stroke="black" points="401.87,-135.5 411.87,-132 401.87,-128.5 401.87,-135.5"/>
</g>
<!-- copy_l1_2_reg_s0_l1&#45;&gt;copy_l2_1 -->
<g id="edge11" class="edge">
<title>copy_l1_2_reg_s0_l1&#45;&gt;copy_l2_1</title>
<path fill="none" stroke="black" d="M376.13,-61C390.66,-61 409.55,-61 428.26,-61"/>
<polygon fill="black" stroke="black" points="428.3,-64.5 438.3,-61 428.3,-57.5 428.3,-64.5"/>
</g>
<!-- add_l2_0_reg_s1_l2&#45;&gt;add_l3_0 -->
<g id="edge13" class="edge">
<title>add_l2_0_reg_s1_l2&#45;&gt;add_l3_0</title>
<path fill="none" stroke="black" d="M684.03,-122.98C691.66,-121.51 700.52,-119.8 709.94,-117.98"/>
<polygon fill="black" stroke="black" points="710.79,-121.38 719.94,-116.05 709.46,-114.51 710.79,-121.38"/>
</g>
<!-- copy_l2_1_reg_s1_l2&#45;&gt;add_l3_0 -->
<g id="edge15" class="edge">
<title>copy_l2_1_reg_s1_l2&#45;&gt;add_l3_0</title>
<path fill="none" stroke="black" d="M684.03,-73.02C691.66,-74.49 700.52,-76.2 709.94,-78.02"/>
<polygon fill="black" stroke="black" points="709.46,-81.49 719.94,-79.95 710.79,-74.62 709.46,-81.49"/>
</g>
<!-- DOUT -->
<g id="node17" class="node">
<title>DOUT</title>
<polygon fill="lightblue" stroke="lightblue" points="1095,-116 1035,-116 1035,-80 1095,-80 1095,-116"/>
<text text-anchor="middle" x="1065" y="-94.3" font-family="Times,serif" font-size="14.00">DOUT</text>
</g>
<!-- add_l3_0_reg_s4_l3&#45;&gt;DOUT -->
<g id="edge17" class="edge">
<title>add_l3_0_reg_s4_l3&#45;&gt;DOUT</title>
<path fill="none" stroke="black" d="M999.32,-98C1007.23,-98 1016.09,-98 1024.65,-98"/>
<polygon fill="black" stroke="black" points="1024.87,-101.5 1034.87,-98 1024.87,-94.5 1024.87,-101.5"/>
</g>
</g>
</svg>
