<?xml version="1.0" encoding="UTF-8" standalone="no"?>
<!DOCTYPE svg PUBLIC "-//W3C//DTD SVG 1.1//EN"
 "http://www.w3.org/Graphics/SVG/1.1/DTD/svg11.dtd">
<!-- Generated by graphviz version 2.43.0 (0)
 -->
<!-- Title: %3 Pages: 1 -->
<svg width="1079pt" height="381pt"
 viewBox="0.00 0.00 1079.00 381.00" xmlns="http://www.w3.org/2000/svg" xmlns:xlink="http://www.w3.org/1999/xlink">
<g id="graph0" class="graph" transform="scale(1 1) rotate(0) translate(4 377)">
<title>%3</title>
<polygon fill="white" stroke="transparent" points="-4,4 -4,-377 1075,-377 1075,4 -4,4"/>
<g id="clust1" class="cluster">
<title>cluster_lvl_0</title>
<polygon fill="none" stroke="black" points="8,-8 8,-365 92,-365 92,-8 8,-8"/>
<text text-anchor="middle" x="50" y="-349.8" font-family="Times,serif" font-size="14.00">Level 0</text>
</g>
<g id="clust2" class="cluster">
<title>cluster_lvl_1</title>
<polygon fill="none" stroke="black" points="112,-69 112,-304 270,-304 270,-69 112,-69"/>
<text text-anchor="middle" x="191" y="-288.8" font-family="Times,serif" font-size="14.00">Level 1</text>
</g>
<g id="clust3" class="cluster">
<title>cluster_lvl_2</title>
<polygon fill="none" stroke="black" points="380,-69 380,-233 578,-233 578,-69 380,-69"/>
<text text-anchor="middle" x="479" y="-217.8" font-family="Times,serif" font-size="14.00">Level 2</text>
</g>
<g id="clust4" class="cluster">
<title>cluster_lvl_3</title>
<polygon fill="none" stroke="black" points="688,-106 688,-199 893,-199 893,-106 688,-106"/>
<text text-anchor="middle" x="790.5" y="-183.8" font-family="Times,serif" font-size="14.00">Level 3</text>
</g>
<!-- leaf_0 -->
<g id="node1" class="node">
<title>leaf_0</title>
<polygon fill="lightyellow" stroke="lightyellow" points="79.5,-334 20.5,-334 20.5,-296 79.5,-296 79.5,-334"/>
<text text-anchor="middle" x="50" y="-318.8" font-family="Times,serif" font-size="14.00">leaf_0</text>
<text text-anchor="middle" x="50" y="-303.8" font-family="Times,serif" font-size="14.00">&lt;&lt; 0)</text>
</g>
<!-- add_l1_0 -->
<g id="node7" class="node">
<title>add_l1_0</title>
<polygon fill="lightyellow" stroke="lightyellow" points="262,-272.5 120,-272.5 120,-219.5 262,-219.5 262,-272.5"/>
<text text-anchor="middle" x="191" y="-257.3" font-family="Times,serif" font-size="14.00">add_l1_0</text>
<text text-anchor="middle" x="191" y="-242.3" font-family="Times,serif" font-size="14.00">add(leaf_0,leaf_1)</text>
<text text-anchor="middle" x="191" y="-227.3" font-family="Times,serif" font-size="14.00">[REG S0]</text>
</g>
<!-- leaf_0&#45;&gt;add_l1_0 -->
<g id="edge1" class="edge">
<title>leaf_0&#45;&gt;add_l1_0</title>
<path fill="none" stroke="black" d="M79.8,-300.7C93.62,-293.84 110.76,-285.34 127.37,-277.09"/>
<polygon fill="black" stroke="black" points="129.12,-280.13 136.52,-272.55 126,-273.86 129.12,-280.13"/>
</g>
<!-- leaf_1 -->
<g id="node2" class="node">
<title>leaf_1</title>
<polygon fill="lightyellow" stroke="lightyellow" points="79.5,-278 20.5,-278 20.5,-240 79.5,-240 79.5,-278"/>
<text text-anchor="middle" x="50" y="-262.8" font-family="Times,serif" font-size="14.00">leaf_1</text>
<text text-anchor="middle" x="50" y="-247.8" font-family="Times,serif" font-size="14.00">&lt;&lt; 1)</text>
</g>
<!-- leaf_1&#45;&gt;add_l1_0 -->
<g id="edge2" class="edge">
<title>leaf_1&#45;&gt;add_l1_0</title>
<path fill="none" stroke="black" d="M79.8,-256.31C88.72,-255.47 99.02,-254.51 109.67,-253.51"/>
<polygon fill="black" stroke="black" points="110.32,-256.97 119.95,-252.55 109.66,-250 110.32,-256.97"/>
</g>
<!-- leaf_2 -->
<g id="node3" class="node">
<title>leaf_2</title>
<polygon fill="lightyellow" stroke="lightyellow" points="79.5,-222 20.5,-222 20.5,-184 79.5,-184 79.5,-222"/>
<text text-anchor="middle" x="50" y="-206.8" font-family="Times,serif" font-size="14.00">leaf_2</text>
<text text-anchor="middle" x="50" y="-191.8" font-family="Times,serif" font-size="14.00">&lt;&lt; 5)</text>
</g>
<!-- add_l1_1 -->
<g id="node8" class="node">
<title>add_l1_1</title>
<polygon fill="lightyellow" stroke="lightyellow" points="262,-201.5 120,-201.5 120,-148.5 262,-148.5 262,-201.5"/>
<text text-anchor="middle" x="191" y="-186.3" font-family="Times,serif" font-size="14.00">add_l1_1</text>
<text text-anchor="middle" x="191" y="-171.3" font-family="Times,serif" font-size="14.00">add(leaf_2,leaf_3)</text>
<text text-anchor="middle" x="191" y="-156.3" font-family="Times,serif" font-size="14.00">[REG S0]</text>
</g>
<!-- leaf_2&#45;&gt;add_l1_1 -->
<g id="edge3" class="edge">
<title>leaf_2&#45;&gt;add_l1_1</title>
<path fill="none" stroke="black" d="M79.8,-197.2C88.81,-195.38 99.23,-193.28 110,-191.12"/>
<polygon fill="black" stroke="black" points="110.83,-194.52 119.95,-189.11 109.45,-187.66 110.83,-194.52"/>
</g>
<!-- leaf_3 -->
<g id="node4" class="node">
<title>leaf_3</title>
<polygon fill="lightyellow" stroke="lightyellow" points="79.5,-166 20.5,-166 20.5,-128 79.5,-128 79.5,-166"/>
<text text-anchor="middle" x="50" y="-150.8" font-family="Times,serif" font-size="14.00">leaf_3</text>
<text text-anchor="middle" x="50" y="-135.8" font-family="Times,serif" font-size="14.00">&lt;&lt; 6)</text>
</g>
<!-- leaf_3&#45;&gt;add_l1_1 -->
<g id="edge4" class="edge">
<title>leaf_3&#45;&gt;add_l1_1</title>
<path fill="none" stroke="black" d="M79.8,-152.8C88.81,-154.62 99.23,-156.72 110,-158.88"/>
<polygon fill="black" stroke="black" points="109.45,-162.34 119.95,-160.89 110.83,-155.48 109.45,-162.34"/>
</g>
<!-- leaf_4 -->
<g id="node5" class="node">
<title>leaf_4</title>
<polygon fill="lightyellow" stroke="lightyellow" points="79.5,-110 20.5,-110 20.5,-72 79.5,-72 79.5,-110"/>
<text text-anchor="middle" x="50" y="-94.8" font-family="Times,serif" font-size="14.00">leaf_4</text>
<text text-anchor="middle" x="50" y="-79.8" font-family="Times,serif" font-size="14.00">&lt;&lt; 7)</text>
</g>
<!-- add_l1_2 -->
<g id="node9" class="node">
<title>add_l1_2</title>
<polygon fill="lightyellow" stroke="lightyellow" points="262,-130.5 120,-130.5 120,-77.5 262,-77.5 262,-130.5"/>
<text text-anchor="middle" x="191" y="-115.3" font-family="Times,serif" font-size="14.00">add_l1_2</text>
<text text-anchor="middle" x="191" y="-100.3" font-family="Times,serif" font-size="14.00">add(leaf_4,leaf_5)</text>
<text text-anchor="middle" x="191" y="-85.3" font-family="Times,serif" font-size="14.00">[REG S0]</text>
</g>
<!-- leaf_4&#45;&gt;add_l1_2 -->
<g id="edge5" class="edge">
<title>leaf_4&#45;&gt;add_l1_2</title>
<path fill="none" stroke="black" d="M79.8,-93.69C88.72,-94.53 99.02,-95.49 109.67,-96.49"/>
<polygon fill="black" stroke="black" points="109.66,-100 119.95,-97.45 110.32,-93.03 109.66,-100"/>
</g>
<!-- leaf_5 -->
<g id="node6" class="node">
<title>leaf_5</title>
<polygon fill="lightyellow" stroke="lightyellow" points="84,-54 16,-54 16,-16 84,-16 84,-54"/>
<text text-anchor="middle" x="50" y="-38.8" font-family="Times,serif" font-size="14.00">leaf_5</text>
<text text-anchor="middle" x="50" y="-23.8" font-family="Times,serif" font-size="14.00">&lt;&lt; 10)</text>
</g>
<!-- leaf_5&#45;&gt;add_l1_2 -->
<g id="edge6" class="edge">
<title>leaf_5&#45;&gt;add_l1_2</title>
<path fill="none" stroke="black" d="M84.29,-51.53C97.2,-57.93 112.41,-65.48 127.21,-72.83"/>
<polygon fill="black" stroke="black" points="125.84,-76.06 136.35,-77.37 128.95,-69.79 125.84,-76.06"/>
</g>
<!-- add_l1_0_reg_s0_l1 -->
<g id="node13" class="node">
<title>add_l1_0_reg_s0_l1</title>
<polygon fill="lightgrey" stroke="lightgrey" points="352,-257 298,-257 298,-219 352,-219 352,-257"/>
<text text-anchor="middle" x="325" y="-241.8" font-family="Times,serif" font-size="14.00">REG</text>
<text text-anchor="middle" x="325" y="-226.8" font-family="Times,serif" font-size="14.00">S0</text>
</g>
<!-- add_l1_0&#45;&gt;add_l1_0_reg_s0_l1 -->
<g id="edge7" class="edge">
<title>add_l1_0&#45;&gt;add_l1_0_reg_s0_l1</title>
<path fill="none" stroke="black" d="M262.25,-241.74C271.07,-241.21 279.79,-240.68 287.77,-240.2"/>
<polygon fill="black" stroke="black" points="288.02,-243.69 297.79,-239.59 287.59,-236.7 288.02,-243.69"/>
</g>
<!-- add_l1_1_reg_s0_l1 -->
<g id="node14" class="node">
<title>add_l1_1_reg_s0_l1</title>
<polygon fill="lightgrey" stroke="lightgrey" points="352,-194 298,-194 298,-156 352,-156 352,-194"/>
<text text-anchor="middle" x="325" y="-178.8" font-family="Times,serif" font-size="14.00">REG</text>
<text text-anchor="middle" x="325" y="-163.8" font-family="Times,serif" font-size="14.00">S0</text>
</g>
<!-- add_l1_1&#45;&gt;add_l1_1_reg_s0_l1 -->
<g id="edge9" class="edge">
<title>add_l1_1&#45;&gt;add_l1_1_reg_s0_l1</title>
<path fill="none" stroke="black" d="M262.25,-175C271.07,-175 279.79,-175 287.77,-175"/>
<polygon fill="black" stroke="black" points="287.79,-178.5 297.79,-175 287.79,-171.5 287.79,-178.5"/>
</g>
<!-- add_l1_2_reg_s0_l1 -->
<g id="node15" class="node">
<title>add_l1_2_reg_s0_l1</title>
<polygon fill="lightgrey" stroke="lightgrey" points="352,-123 298,-123 298,-85 352,-85 352,-123"/>
<text text-anchor="middle" x="325" y="-107.8" font-family="Times,serif" font-size="14.00">REG</text>
<text text-anchor="middle" x="325" y="-92.8" font-family="Times,serif" font-size="14.00">S0</text>
</g>
<!-- add_l1_2&#45;&gt;add_l1_2_reg_s0_l1 -->
<g id="edge11" class="edge">
<title>add_l1_2&#45;&gt;add_l1_2_reg_s0_l1</title>
<path fill="none" stroke="black" d="M262.25,-104C271.07,-104 279.79,-104 287.77,-104"/>
<polygon fill="black" stroke="black" points="287.79,-107.5 297.79,-104 287.79,-100.5 287.79,-107.5"/>
</g>
<!-- add_l2_0 -->
<g id="node10" class="node">
<title>add_l2_0</title>
<polygon fill="lightyellow" stroke="lightyellow" points="570,-201.5 388,-201.5 388,-148.5 570,-148.5 570,-201.5"/>
<text text-anchor="middle" x="479" y="-186.3" font-family="Times,serif" font-size="14.00">add_l2_0</text>
<text text-anchor="middle" x="479" y="-171.3" font-family="Times,serif" font-size="14.00">add(add_l1_0,add_l1_1)</text>
<text text-anchor="middle" x="479" y="-156.3" font-family="Times,serif" font-size="14.00">[REG S1]</text>
</g>
<!-- add_l2_0_reg_s1_l2 -->
<g id="node16" class="node">
<title>add_l2_0_reg_s1_l2</title>
<polygon fill="lightgrey" stroke="lightgrey" points="660,-190 606,-190 606,-152 660,-152 660,-190"/>
<text text-anchor="middle" x="633" y="-174.8" font-family="Times,serif" font-size="14.00">REG</text>
<text text-anchor="middle" x="633" y="-159.8" font-family="Times,serif" font-size="14.00">S1</text>
</g>
<!-- add_l2_0&#45;&gt;add_l2_0_reg_s1_l2 -->
<g id="edge13" class="edge">
<title>add_l2_0&#45;&gt;add_l2_0_reg_s1_l2</title>
<path fill="none" stroke="black" d="M570.18,-172.63C579.14,-172.39 587.83,-172.16 595.73,-171.95"/>
<polygon fill="black" stroke="black" points="596.05,-175.45 605.96,-171.69 595.87,-168.45 596.05,-175.45"/>
</g>
<!-- copy_l2_1 -->
<g id="node11" class="node">
<title>copy_l2_1</title>
<polygon fill="lightyellow" stroke="lightyellow" points="540,-130.5 418,-130.5 418,-77.5 540,-77.5 540,-130.5"/>
<text text-anchor="middle" x="479" y="-115.3" font-family="Times,serif" font-size="14.00">copy_l2_1</text>
<text text-anchor="middle" x="479" y="-100.3" font-family="Times,serif" font-size="14.00">copy(add_l1_2)</text>
<text text-anchor="middle" x="479" y="-85.3" font-family="Times,serif" font-size="14.00">[REG S1]</text>
</g>
<!-- copy_l2_1_reg_s1_l2 -->
<g id="node17" class="node">
<title>copy_l2_1_reg_s1_l2</title>
<polygon fill="lightgrey" stroke="lightgrey" points="660,-130 606,-130 606,-92 660,-92 660,-130"/>
<text text-anchor="middle" x="633" y="-114.8" font-family="Times,serif" font-size="14.00">REG</text>
<text text-anchor="middle" x="633" y="-99.8" font-family="Times,serif" font-size="14.00">S1</text>
</g>
<!-- copy_l2_1&#45;&gt;copy_l2_1_reg_s1_l2 -->
<g id="edge15" class="edge">
<title>copy_l2_1&#45;&gt;copy_l2_1_reg_s1_l2</title>
<path fill="none" stroke="black" d="M540.07,-106.77C558.73,-107.63 578.72,-108.55 595.28,-109.31"/>
<polygon fill="black" stroke="black" points="595.47,-112.82 605.62,-109.78 595.79,-105.83 595.47,-112.82"/>
</g>
<!-- add_l3_0 -->
<g id="node12" class="node">
<title>add_l3_0</title>
<polygon fill="lightyellow" stroke="lightyellow" points="885,-167.5 696,-167.5 696,-114.5 885,-114.5 885,-167.5"/>
<text text-anchor="middle" x="790.5" y="-152.3" font-family="Times,serif" font-size="14.00">add_l3_0</text>
<text text-anchor="middle" x="790.5" y="-137.3" font-family="Times,serif" font-size="14.00">add(add_l2_0,copy_l2_1)</text>
<text text-anchor="middle" x="790.5" y="-122.3" font-family="Times,serif" font-size="14.00">[REG S4]</text>
</g>
<!-- add_l3_0_reg_s4_l3 -->
<g id="node19" class="node">
<title>add_l3_0_reg_s4_l3</title>
<polygon fill="lightgrey" stroke="lightgrey" points="975,-160 921,-160 921,-122 975,-122 975,-160"/>
<text text-anchor="middle" x="948" y="-144.8" font-family="Times,serif" font-size="14.00">REG</text>
<text text-anchor="middle" x="948" y="-129.8" font-family="Times,serif" font-size="14.00">S4</text>
</g>
<!-- add_l3_0&#45;&gt;add_l3_0_reg_s4_l3 -->
<g id="edge17" class="edge">
<title>add_l3_0&#45;&gt;add_l3_0_reg_s4_l3</title>
<path fill="none" stroke="black" d="M885.1,-141C894.12,-141 902.84,-141 910.75,-141"/>
<polygon fill="black" stroke="black" points="910.99,-144.5 920.99,-141 910.99,-137.5 910.99,-144.5"/>
</g>
<!-- add_l1_0_reg_s0_l1&#45;&gt;add_l2_0 -->
<g id="edge8" class="edge">
<title>add_l1_0_reg_s0_l1&#45;&gt;add_l2_0</title>
<path fill="none" stroke="black" d="M352.13,-227.17C366.72,-221.12 385.71,-213.25 404.5,-205.46"/>
<polygon fill="black" stroke="black" points="406.08,-208.6 413.98,-201.53 403.4,-202.13 406.08,-208.6"/>
</g>
<!-- add_l1_1_reg_s0_l1&#45;&gt;add_l2_0 -->
<g id="edge10" class="edge">
<title>add_l1_1_reg_s0_l1&#45;&gt;add_l2_0</title>
<path fill="none" stroke="black" d="M352.13,-175C359.67,-175 368.39,-175 377.64,-175"/>
<polygon fill="black" stroke="black" points="377.87,-178.5 387.87,-175 377.87,-171.5 377.87,-178.5"/>
</g>
<!-- add_l1_2_reg_s0_l1&#45;&gt;copy_l2_1 -->
<g id="edge12" class="edge">
<title>add_l1_2_reg_s0_l1&#45;&gt;copy_l2_1</title>
<path fill="none" stroke="black" d="M352.13,-104C367.53,-104 387.81,-104 407.59,-104"/>
<polygon fill="black" stroke="black" points="407.85,-107.5 417.85,-104 407.85,-100.5 407.85,-107.5"/>
</g>
<!-- add_l2_0_reg_s1_l2&#45;&gt;add_l3_0 -->
<g id="edge14" class="edge">
<title>add_l2_0_reg_s1_l2&#45;&gt;add_l3_0</title>
<path fill="none" stroke="black" d="M660.03,-165.98C667.66,-164.51 676.52,-162.8 685.94,-160.98"/>
<polygon fill="black" stroke="black" points="686.79,-164.38 695.94,-159.05 685.46,-157.51 686.79,-164.38"/>
</g>
<!-- copy_l2_1_reg_s1_l2&#45;&gt;add_l3_0 -->
<g id="edge16" class="edge">
<title>copy_l2_1_reg_s1_l2&#45;&gt;add_l3_0</title>
<path fill="none" stroke="black" d="M660.03,-116.02C667.66,-117.49 676.52,-119.2 685.94,-121.02"/>
<polygon fill="black" stroke="black" points="685.46,-124.49 695.94,-122.95 686.79,-117.62 685.46,-124.49"/>
</g>
<!-- DOUT -->
<g id="node18" class="node">
<title>DOUT</title>
<polygon fill="lightblue" stroke="lightblue" points="1071,-159 1011,-159 1011,-123 1071,-123 1071,-159"/>
<text text-anchor="middle" x="1041" y="-137.3" font-family="Times,serif" font-size="14.00">DOUT</text>
</g>
<!-- add_l3_0_reg_s4_l3&#45;&gt;DOUT -->
<g id="edge18" class="edge">
<title>add_l3_0_reg_s4_l3&#45;&gt;DOUT</title>
<path fill="none" stroke="black" d="M975.32,-141C983.23,-141 992.09,-141 1000.65,-141"/>
<polygon fill="black" stroke="black" points="1000.87,-144.5 1010.87,-141 1000.87,-137.5 1000.87,-144.5"/>
</g>
</g>
</svg>
