<?xml version="1.0" encoding="UTF-8" standalone="no"?>
<!DOCTYPE svg PUBLIC "-//W3C//DTD SVG 1.1//EN"
 "http://www.w3.org/Graphics/SVG/1.1/DTD/svg11.dtd">
<!-- Generated by graphviz version 2.43.0 (0)
 -->
<!-- Title: %3 Pages: 1 -->
<svg width="480pt" height="157pt"
 viewBox="0.00 0.00 480.00 157.00" xmlns="http://www.w3.org/2000/svg" xmlns:xlink="http://www.w3.org/1999/xlink">
<g id="graph0" class="graph" transform="scale(1 1) rotate(0) translate(4 153)">
<title>%3</title>
<polygon fill="white" stroke="transparent" points="-4,4 -4,-153 476,-153 476,4 -4,4"/>
<g id="clust1" class="cluster">
<title>cluster_lvl_0</title>
<polygon fill="none" stroke="black" points="8,-8 8,-141 116,-141 116,-8 8,-8"/>
<text text-anchor="middle" x="62" y="-125.8" font-family="Times,serif" font-size="14.00">Level 0</text>
</g>
<g id="clust2" class="cluster">
<title>cluster_lvl_1</title>
<polygon fill="none" stroke="black" points="136,-26 136,-119 294,-119 294,-26 136,-26"/>
<text text-anchor="middle" x="215" y="-103.8" font-family="Times,serif" font-size="14.00">Level 1</text>
</g>
<!-- leaf_0 -->
<g id="node1" class="node">
<title>leaf_0</title>
<polygon fill="lightyellow" stroke="lightyellow" points="108,-110 16,-110 16,-72 108,-72 108,-110"/>
<text text-anchor="middle" x="62" y="-94.8" font-family="Times,serif" font-size="14.00">leaf_0</text>
<text text-anchor="middle" x="62" y="-79.8" font-family="Times,serif" font-size="14.00">(0 &#45; &lt;&lt; 0))</text>
</g>
<!-- add_l1_0 -->
<g id="node3" class="node">
<title>add_l1_0</title>
<polygon fill="lightyellow" stroke="lightyellow" points="286,-87.5 144,-87.5 144,-34.5 286,-34.5 286,-87.5"/>
<text text-anchor="middle" x="215" y="-72.3" font-family="Times,serif" font-size="14.00">add_l1_0</text>
<text text-anchor="middle" x="215" y="-57.3" font-family="Times,serif" font-size="14.00">add(leaf_0,leaf_1)</text>
<text text-anchor="middle" x="215" y="-42.3" font-family="Times,serif" font-size="14.00">[REG S2]</text>
</g>
<!-- leaf_0&#45;&gt;add_l1_0 -->
<g id="edge1" class="edge">
<title>leaf_0&#45;&gt;add_l1_0</title>
<path fill="none" stroke="black" d="M108.3,-82C116.45,-80.38 125.15,-78.65 133.94,-76.91"/>
<polygon fill="black" stroke="black" points="134.74,-80.32 143.87,-74.93 133.37,-73.45 134.74,-80.32"/>
</g>
<!-- leaf_1 -->
<g id="node2" class="node">
<title>leaf_1</title>
<polygon fill="lightyellow" stroke="lightyellow" points="91.5,-54 32.5,-54 32.5,-16 91.5,-16 91.5,-54"/>
<text text-anchor="middle" x="62" y="-38.8" font-family="Times,serif" font-size="14.00">leaf_1</text>
<text text-anchor="middle" x="62" y="-23.8" font-family="Times,serif" font-size="14.00">&lt;&lt; 4)</text>
</g>
<!-- leaf_1&#45;&gt;add_l1_0 -->
<g id="edge2" class="edge">
<title>leaf_1&#45;&gt;add_l1_0</title>
<path fill="none" stroke="black" d="M91.76,-39.95C103.97,-42.05 118.88,-44.62 134.02,-47.23"/>
<polygon fill="black" stroke="black" points="133.53,-50.7 143.98,-48.94 134.72,-43.8 133.53,-50.7"/>
</g>
<!-- add_l1_0_reg_s2_l1 -->
<g id="node5" class="node">
<title>add_l1_0_reg_s2_l1</title>
<polygon fill="lightgrey" stroke="lightgrey" points="376,-80 322,-80 322,-42 376,-42 376,-80"/>
<text text-anchor="middle" x="349" y="-64.8" font-family="Times,serif" font-size="14.00">REG</text>
<text text-anchor="middle" x="349" y="-49.8" font-family="Times,serif" font-size="14.00">S2</text>
</g>
<!-- add_l1_0&#45;&gt;add_l1_0_reg_s2_l1 -->
<g id="edge3" class="edge">
<title>add_l1_0&#45;&gt;add_l1_0_reg_s2_l1</title>
<path fill="none" stroke="black" d="M286.25,-61C295.07,-61 303.79,-61 311.77,-61"/>
<polygon fill="black" stroke="black" points="311.79,-64.5 321.79,-61 311.79,-57.5 311.79,-64.5"/>
</g>
<!-- DOUT -->
<g id="node4" class="node">
<title>DOUT</title>
<polygon fill="lightblue" stroke="lightblue" points="472,-79 412,-79 412,-43 472,-43 472,-79"/>
<text text-anchor="middle" x="442" y="-57.3" font-family="Times,serif" font-size="14.00">DOUT</text>
</g>
<!-- add_l1_0_reg_s2_l1&#45;&gt;DOUT -->
<g id="edge4" class="edge">
<title>add_l1_0_reg_s2_l1&#45;&gt;DOUT</title>
<path fill="none" stroke="black" d="M376.32,-61C384.23,-61 393.09,-61 401.65,-61"/>
<polygon fill="black" stroke="black" points="401.87,-64.5 411.87,-61 401.87,-57.5 401.87,-64.5"/>
</g>
</g>
</svg>
