<?xml version="1.0" encoding="UTF-8" standalone="no"?>
<!DOCTYPE svg PUBLIC "-//W3C//DTD SVG 1.1//EN"
 "http://www.w3.org/Graphics/SVG/1.1/DTD/svg11.dtd">
<!-- Generated by graphviz version 2.43.0 (0)
 -->
<!-- Title: %3 Pages: 1 -->
<svg width="755pt" height="269pt"
 viewBox="0.00 0.00 755.00 269.00" xmlns="http://www.w3.org/2000/svg" xmlns:xlink="http://www.w3.org/1999/xlink">
<g id="graph0" class="graph" transform="scale(1 1) rotate(0) translate(4 265)">
<title>%3</title>
<polygon fill="white" stroke="transparent" points="-4,4 -4,-265 751,-265 751,4 -4,4"/>
<g id="clust1" class="cluster">
<title>cluster_lvl_0</title>
<polygon fill="none" stroke="black" points="8,-8 8,-253 83,-253 83,-8 8,-8"/>
<text text-anchor="middle" x="45.5" y="-237.8" font-family="Times,serif" font-size="14.00">Level 0</text>
</g>
<g id="clust2" class="cluster">
<title>cluster_lvl_1</title>
<polygon fill="none" stroke="black" points="103,-48 103,-212 261,-212 261,-48 103,-48"/>
<text text-anchor="middle" x="182" y="-196.8" font-family="Times,serif" font-size="14.00">Level 1</text>
</g>
<g id="clust3" class="cluster">
<title>cluster_lvl_2</title>
<polygon fill="none" stroke="black" points="371,-83 371,-176 569,-176 569,-83 371,-83"/>
<text text-anchor="middle" x="470" y="-160.8" font-family="Times,serif" font-size="14.00">Level 2</text>
</g>
<!-- leaf_0 -->
<g id="node1" class="node">
<title>leaf_0</title>
<polygon fill="lightyellow" stroke="lightyellow" points="75,-222 16,-222 16,-184 75,-184 75,-222"/>
<text text-anchor="middle" x="45.5" y="-206.8" font-family="Times,serif" font-size="14.00">leaf_0</text>
<text text-anchor="middle" x="45.5" y="-191.8" font-family="Times,serif" font-size="14.00">&lt;&lt; 0)</text>
</g>
<!-- add_l1_0 -->
<g id="node5" class="node">
<title>add_l1_0</title>
<polygon fill="lightyellow" stroke="lightyellow" points="253,-180.5 111,-180.5 111,-127.5 253,-127.5 253,-180.5"/>
<text text-anchor="middle" x="182" y="-165.3" font-family="Times,serif" font-size="14.00">add_l1_0</text>
<text text-anchor="middle" x="182" y="-150.3" font-family="Times,serif" font-size="14.00">add(leaf_0,leaf_1)</text>
<text text-anchor="middle" x="182" y="-135.3" font-family="Times,serif" font-size="14.00">[REG S0]</text>
</g>
<!-- leaf_0&#45;&gt;add_l1_0 -->
<g id="edge1" class="edge">
<title>leaf_0&#45;&gt;add_l1_0</title>
<path fill="none" stroke="black" d="M75.02,-192.61C82.95,-189.72 91.96,-186.44 101.3,-183.04"/>
<polygon fill="black" stroke="black" points="102.53,-186.31 110.73,-179.6 100.13,-179.74 102.53,-186.31"/>
</g>
<!-- leaf_1 -->
<g id="node2" class="node">
<title>leaf_1</title>
<polygon fill="lightyellow" stroke="lightyellow" points="75,-166 16,-166 16,-128 75,-128 75,-166"/>
<text text-anchor="middle" x="45.5" y="-150.8" font-family="Times,serif" font-size="14.00">leaf_1</text>
<text text-anchor="middle" x="45.5" y="-135.8" font-family="Times,serif" font-size="14.00">&lt;&lt; 1)</text>
</g>
<!-- leaf_1&#45;&gt;add_l1_0 -->
<g id="edge2" class="edge">
<title>leaf_1&#45;&gt;add_l1_0</title>
<path fill="none" stroke="black" d="M75.02,-148.48C82.78,-148.89 91.58,-149.35 100.72,-149.82"/>
<polygon fill="black" stroke="black" points="100.56,-153.32 110.73,-150.34 100.92,-146.33 100.56,-153.32"/>
</g>
<!-- leaf_2 -->
<g id="node3" class="node">
<title>leaf_2</title>
<polygon fill="lightyellow" stroke="lightyellow" points="75,-110 16,-110 16,-72 75,-72 75,-110"/>
<text text-anchor="middle" x="45.5" y="-94.8" font-family="Times,serif" font-size="14.00">leaf_2</text>
<text text-anchor="middle" x="45.5" y="-79.8" font-family="Times,serif" font-size="14.00">&lt;&lt; 2)</text>
</g>
<!-- add_l1_1 -->
<g id="node6" class="node">
<title>add_l1_1</title>
<polygon fill="lightyellow" stroke="lightyellow" points="253,-109.5 111,-109.5 111,-56.5 253,-56.5 253,-109.5"/>
<text text-anchor="middle" x="182" y="-94.3" font-family="Times,serif" font-size="14.00">add_l1_1</text>
<text text-anchor="middle" x="182" y="-79.3" font-family="Times,serif" font-size="14.00">add(leaf_2,leaf_3)</text>
<text text-anchor="middle" x="182" y="-64.3" font-family="Times,serif" font-size="14.00">[REG S0]</text>
</g>
<!-- leaf_2&#45;&gt;add_l1_1 -->
<g id="edge3" class="edge">
<title>leaf_2&#45;&gt;add_l1_1</title>
<path fill="none" stroke="black" d="M75.02,-89.3C82.78,-88.84 91.58,-88.32 100.72,-87.78"/>
<polygon fill="black" stroke="black" points="100.95,-91.27 110.73,-87.18 100.54,-84.28 100.95,-91.27"/>
</g>
<!-- leaf_3 -->
<g id="node4" class="node">
<title>leaf_3</title>
<polygon fill="lightyellow" stroke="lightyellow" points="75,-54 16,-54 16,-16 75,-16 75,-54"/>
<text text-anchor="middle" x="45.5" y="-38.8" font-family="Times,serif" font-size="14.00">leaf_3</text>
<text text-anchor="middle" x="45.5" y="-23.8" font-family="Times,serif" font-size="14.00">&lt;&lt; 3)</text>
</g>
<!-- leaf_3&#45;&gt;add_l1_1 -->
<g id="edge4" class="edge">
<title>leaf_3&#45;&gt;add_l1_1</title>
<path fill="none" stroke="black" d="M75.02,-45.18C82.95,-48.01 91.96,-51.22 101.3,-54.56"/>
<polygon fill="black" stroke="black" points="100.13,-57.86 110.73,-57.92 102.49,-51.26 100.13,-57.86"/>
</g>
<!-- add_l1_0_reg_s0_l1 -->
<g id="node8" class="node">
<title>add_l1_0_reg_s0_l1</title>
<polygon fill="lightgrey" stroke="lightgrey" points="343,-169 289,-169 289,-131 343,-131 343,-169"/>
<text text-anchor="middle" x="316" y="-153.8" font-family="Times,serif" font-size="14.00">REG</text>
<text text-anchor="middle" x="316" y="-138.8" font-family="Times,serif" font-size="14.00">S0</text>
</g>
<!-- add_l1_0&#45;&gt;add_l1_0_reg_s0_l1 -->
<g id="edge5" class="edge">
<title>add_l1_0&#45;&gt;add_l1_0_reg_s0_l1</title>
<path fill="none" stroke="black" d="M253.25,-151.87C262.07,-151.6 270.79,-151.34 278.77,-151.1"/>
<polygon fill="black" stroke="black" points="278.9,-154.6 288.79,-150.79 278.69,-147.6 278.9,-154.6"/>
</g>
<!-- add_l1_1_reg_s0_l1 -->
<g id="node9" class="node">
<title>add_l1_1_reg_s0_l1</title>
<polygon fill="lightgrey" stroke="lightgrey" points="343,-109 289,-109 289,-71 343,-71 343,-109"/>
<text text-anchor="middle" x="316" y="-93.8" font-family="Times,serif" font-size="14.00">REG</text>
<text text-anchor="middle" x="316" y="-78.8" font-family="Times,serif" font-size="14.00">S0</text>
</g>
<!-- add_l1_1&#45;&gt;add_l1_1_reg_s0_l1 -->
<g id="edge7" class="edge">
<title>add_l1_1&#45;&gt;add_l1_1_reg_s0_l1</title>
<path fill="none" stroke="black" d="M253.25,-86.73C262.07,-87.19 270.79,-87.66 278.77,-88.08"/>
<polygon fill="black" stroke="black" points="278.62,-91.58 288.79,-88.61 278.99,-84.59 278.62,-91.58"/>
</g>
<!-- add_l2_0 -->
<g id="node7" class="node">
<title>add_l2_0</title>
<polygon fill="lightyellow" stroke="lightyellow" points="561,-144.5 379,-144.5 379,-91.5 561,-91.5 561,-144.5"/>
<text text-anchor="middle" x="470" y="-129.3" font-family="Times,serif" font-size="14.00">add_l2_0</text>
<text text-anchor="middle" x="470" y="-114.3" font-family="Times,serif" font-size="14.00">add(add_l1_0,add_l1_1)</text>
<text text-anchor="middle" x="470" y="-99.3" font-family="Times,serif" font-size="14.00">[REG S2]</text>
</g>
<!-- add_l2_0_reg_s2_l2 -->
<g id="node11" class="node">
<title>add_l2_0_reg_s2_l2</title>
<polygon fill="lightgrey" stroke="lightgrey" points="651,-137 597,-137 597,-99 651,-99 651,-137"/>
<text text-anchor="middle" x="624" y="-121.8" font-family="Times,serif" font-size="14.00">REG</text>
<text text-anchor="middle" x="624" y="-106.8" font-family="Times,serif" font-size="14.00">S2</text>
</g>
<!-- add_l2_0&#45;&gt;add_l2_0_reg_s2_l2 -->
<g id="edge9" class="edge">
<title>add_l2_0&#45;&gt;add_l2_0_reg_s2_l2</title>
<path fill="none" stroke="black" d="M561.18,-118C570.14,-118 578.83,-118 586.73,-118"/>
<polygon fill="black" stroke="black" points="586.96,-121.5 596.96,-118 586.96,-114.5 586.96,-121.5"/>
</g>
<!-- add_l1_0_reg_s0_l1&#45;&gt;add_l2_0 -->
<g id="edge6" class="edge">
<title>add_l1_0_reg_s0_l1&#45;&gt;add_l2_0</title>
<path fill="none" stroke="black" d="M343.13,-144.5C350.75,-142.89 359.57,-141.04 368.94,-139.07"/>
<polygon fill="black" stroke="black" points="369.8,-142.46 378.87,-136.98 368.36,-135.61 369.8,-142.46"/>
</g>
<!-- add_l1_1_reg_s0_l1&#45;&gt;add_l2_0 -->
<g id="edge8" class="edge">
<title>add_l1_1_reg_s0_l1&#45;&gt;add_l2_0</title>
<path fill="none" stroke="black" d="M343.13,-94.81C350.75,-96.22 359.57,-97.84 368.94,-99.57"/>
<polygon fill="black" stroke="black" points="368.4,-103.03 378.87,-101.4 369.67,-96.14 368.4,-103.03"/>
</g>
<!-- DOUT -->
<g id="node10" class="node">
<title>DOUT</title>
<polygon fill="lightblue" stroke="lightblue" points="747,-136 687,-136 687,-100 747,-100 747,-136"/>
<text text-anchor="middle" x="717" y="-114.3" font-family="Times,serif" font-size="14.00">DOUT</text>
</g>
<!-- add_l2_0_reg_s2_l2&#45;&gt;DOUT -->
<g id="edge10" class="edge">
<title>add_l2_0_reg_s2_l2&#45;&gt;DOUT</title>
<path fill="none" stroke="black" d="M651.32,-118C659.23,-118 668.09,-118 676.65,-118"/>
<polygon fill="black" stroke="black" points="676.87,-121.5 686.87,-118 676.87,-114.5 676.87,-121.5"/>
</g>
</g>
</svg>
