<?xml version="1.0" encoding="UTF-8" standalone="no"?>
<!DOCTYPE svg PUBLIC "-//W3C//DTD SVG 1.1//EN"
 "http://www.w3.org/Graphics/SVG/1.1/DTD/svg11.dtd">
<!-- Generated by graphviz version 2.43.0 (0)
 -->
<!-- Title: %3 Pages: 1 -->
<svg width="795pt" height="221pt"
 viewBox="0.00 0.00 795.00 221.00" xmlns="http://www.w3.org/2000/svg" xmlns:xlink="http://www.w3.org/1999/xlink">
<g id="graph0" class="graph" transform="scale(1 1) rotate(0) translate(4 217)">
<title>%3</title>
<polygon fill="white" stroke="transparent" points="-4,4 -4,-217 791,-217 791,4 -4,4"/>
<g id="clust1" class="cluster">
<title>cluster_lvl_0</title>
<polygon fill="none" stroke="black" points="8,-16 8,-205 116,-205 116,-16 8,-16"/>
<text text-anchor="middle" x="62" y="-189.8" font-family="Times,serif" font-size="14.00">Level 0</text>
</g>
<g id="clust2" class="cluster">
<title>cluster_lvl_1</title>
<polygon fill="none" stroke="black" points="136,-8 136,-172 294,-172 294,-8 136,-8"/>
<text text-anchor="middle" x="215" y="-156.8" font-family="Times,serif" font-size="14.00">Level 1</text>
</g>
<g id="clust3" class="cluster">
<title>cluster_lvl_2</title>
<polygon fill="none" stroke="black" points="404,-36 404,-129 609,-129 609,-36 404,-36"/>
<text text-anchor="middle" x="506.5" y="-113.8" font-family="Times,serif" font-size="14.00">Level 2</text>
</g>
<!-- leaf_0 -->
<g id="node1" class="node">
<title>leaf_0</title>
<polygon fill="lightyellow" stroke="lightyellow" points="108,-174 16,-174 16,-136 108,-136 108,-174"/>
<text text-anchor="middle" x="62" y="-158.8" font-family="Times,serif" font-size="14.00">leaf_0</text>
<text text-anchor="middle" x="62" y="-143.8" font-family="Times,serif" font-size="14.00">(0 &#45; &lt;&lt; 3))</text>
</g>
<!-- add_l1_0 -->
<g id="node4" class="node">
<title>add_l1_0</title>
<polygon fill="lightyellow" stroke="lightyellow" points="286,-140.5 144,-140.5 144,-87.5 286,-87.5 286,-140.5"/>
<text text-anchor="middle" x="215" y="-125.3" font-family="Times,serif" font-size="14.00">add_l1_0</text>
<text text-anchor="middle" x="215" y="-110.3" font-family="Times,serif" font-size="14.00">add(leaf_0,leaf_1)</text>
<text text-anchor="middle" x="215" y="-95.3" font-family="Times,serif" font-size="14.00">[REG S0]</text>
</g>
<!-- leaf_0&#45;&gt;add_l1_0 -->
<g id="edge1" class="edge">
<title>leaf_0&#45;&gt;add_l1_0</title>
<path fill="none" stroke="black" d="M108.3,-142.7C116.45,-140.49 125.15,-138.12 133.94,-135.74"/>
<polygon fill="black" stroke="black" points="135.13,-139.04 143.87,-133.04 133.3,-132.29 135.13,-139.04"/>
</g>
<!-- leaf_1 -->
<g id="node2" class="node">
<title>leaf_1</title>
<polygon fill="lightyellow" stroke="lightyellow" points="91.5,-118 32.5,-118 32.5,-80 91.5,-80 91.5,-118"/>
<text text-anchor="middle" x="62" y="-102.8" font-family="Times,serif" font-size="14.00">leaf_1</text>
<text text-anchor="middle" x="62" y="-87.8" font-family="Times,serif" font-size="14.00">&lt;&lt; 6)</text>
</g>
<!-- leaf_1&#45;&gt;add_l1_0 -->
<g id="edge2" class="edge">
<title>leaf_1&#45;&gt;add_l1_0</title>
<path fill="none" stroke="black" d="M91.76,-101.86C103.97,-103.07 118.88,-104.55 134.02,-106.06"/>
<polygon fill="black" stroke="black" points="133.69,-109.54 143.98,-107.04 134.38,-102.57 133.69,-109.54"/>
</g>
<!-- leaf_2 -->
<g id="node3" class="node">
<title>leaf_2</title>
<polygon fill="lightyellow" stroke="lightyellow" points="91.5,-62 32.5,-62 32.5,-24 91.5,-24 91.5,-62"/>
<text text-anchor="middle" x="62" y="-46.8" font-family="Times,serif" font-size="14.00">leaf_2</text>
<text text-anchor="middle" x="62" y="-31.8" font-family="Times,serif" font-size="14.00">&lt;&lt; 8)</text>
</g>
<!-- copy_l1_1 -->
<g id="node5" class="node">
<title>copy_l1_1</title>
<polygon fill="lightyellow" stroke="lightyellow" points="266,-69.5 164,-69.5 164,-16.5 266,-16.5 266,-69.5"/>
<text text-anchor="middle" x="215" y="-54.3" font-family="Times,serif" font-size="14.00">copy_l1_1</text>
<text text-anchor="middle" x="215" y="-39.3" font-family="Times,serif" font-size="14.00">copy(leaf_2)</text>
<text text-anchor="middle" x="215" y="-24.3" font-family="Times,serif" font-size="14.00">[REG S0]</text>
</g>
<!-- leaf_2&#45;&gt;copy_l1_1 -->
<g id="edge3" class="edge">
<title>leaf_2&#45;&gt;copy_l1_1</title>
<path fill="none" stroke="black" d="M91.76,-43C109.34,-43 132.49,-43 153.92,-43"/>
<polygon fill="black" stroke="black" points="153.94,-46.5 163.94,-43 153.94,-39.5 153.94,-46.5"/>
</g>
<!-- add_l1_0_reg_s0_l1 -->
<g id="node7" class="node">
<title>add_l1_0_reg_s0_l1</title>
<polygon fill="lightgrey" stroke="lightgrey" points="376,-129 322,-129 322,-91 376,-91 376,-129"/>
<text text-anchor="middle" x="349" y="-113.8" font-family="Times,serif" font-size="14.00">REG</text>
<text text-anchor="middle" x="349" y="-98.8" font-family="Times,serif" font-size="14.00">S0</text>
</g>
<!-- add_l1_0&#45;&gt;add_l1_0_reg_s0_l1 -->
<g id="edge4" class="edge">
<title>add_l1_0&#45;&gt;add_l1_0_reg_s0_l1</title>
<path fill="none" stroke="black" d="M286.25,-111.87C295.07,-111.6 303.79,-111.34 311.77,-111.1"/>
<polygon fill="black" stroke="black" points="311.9,-114.6 321.79,-110.79 311.69,-107.6 311.9,-114.6"/>
</g>
<!-- copy_l1_1_reg_s0_l1 -->
<g id="node8" class="node">
<title>copy_l1_1_reg_s0_l1</title>
<polygon fill="lightgrey" stroke="lightgrey" points="376,-69 322,-69 322,-31 376,-31 376,-69"/>
<text text-anchor="middle" x="349" y="-53.8" font-family="Times,serif" font-size="14.00">REG</text>
<text text-anchor="middle" x="349" y="-38.8" font-family="Times,serif" font-size="14.00">S0</text>
</g>
<!-- copy_l1_1&#45;&gt;copy_l1_1_reg_s0_l1 -->
<g id="edge6" class="edge">
<title>copy_l1_1&#45;&gt;copy_l1_1_reg_s0_l1</title>
<path fill="none" stroke="black" d="M266.28,-45.67C281.38,-46.47 297.64,-47.33 311.65,-48.07"/>
<polygon fill="black" stroke="black" points="311.69,-51.58 321.86,-48.61 312.06,-44.59 311.69,-51.58"/>
</g>
<!-- add_l2_0 -->
<g id="node6" class="node">
<title>add_l2_0</title>
<polygon fill="lightyellow" stroke="lightyellow" points="601,-97.5 412,-97.5 412,-44.5 601,-44.5 601,-97.5"/>
<text text-anchor="middle" x="506.5" y="-82.3" font-family="Times,serif" font-size="14.00">add_l2_0</text>
<text text-anchor="middle" x="506.5" y="-67.3" font-family="Times,serif" font-size="14.00">add(add_l1_0,copy_l1_1)</text>
<text text-anchor="middle" x="506.5" y="-52.3" font-family="Times,serif" font-size="14.00">[REG S3]</text>
</g>
<!-- add_l2_0_reg_s3_l2 -->
<g id="node10" class="node">
<title>add_l2_0_reg_s3_l2</title>
<polygon fill="lightgrey" stroke="lightgrey" points="691,-90 637,-90 637,-52 691,-52 691,-90"/>
<text text-anchor="middle" x="664" y="-74.8" font-family="Times,serif" font-size="14.00">REG</text>
<text text-anchor="middle" x="664" y="-59.8" font-family="Times,serif" font-size="14.00">S3</text>
</g>
<!-- add_l2_0&#45;&gt;add_l2_0_reg_s3_l2 -->
<g id="edge8" class="edge">
<title>add_l2_0&#45;&gt;add_l2_0_reg_s3_l2</title>
<path fill="none" stroke="black" d="M601.1,-71C610.12,-71 618.84,-71 626.75,-71"/>
<polygon fill="black" stroke="black" points="626.99,-74.5 636.99,-71 626.99,-67.5 626.99,-74.5"/>
</g>
<!-- add_l1_0_reg_s0_l1&#45;&gt;add_l2_0 -->
<g id="edge5" class="edge">
<title>add_l1_0_reg_s0_l1&#45;&gt;add_l2_0</title>
<path fill="none" stroke="black" d="M376.03,-103.47C383.74,-101.54 392.7,-99.29 402.24,-96.9"/>
<polygon fill="black" stroke="black" points="403.1,-100.29 411.94,-94.46 401.39,-93.5 403.1,-100.29"/>
</g>
<!-- copy_l1_1_reg_s0_l1&#45;&gt;add_l2_0 -->
<g id="edge7" class="edge">
<title>copy_l1_1_reg_s0_l1&#45;&gt;add_l2_0</title>
<path fill="none" stroke="black" d="M376.03,-53.51C383.66,-54.55 392.52,-55.74 401.94,-57.01"/>
<polygon fill="black" stroke="black" points="401.57,-60.5 411.94,-58.37 402.5,-53.56 401.57,-60.5"/>
</g>
<!-- DOUT -->
<g id="node9" class="node">
<title>DOUT</title>
<polygon fill="lightblue" stroke="lightblue" points="787,-89 727,-89 727,-53 787,-53 787,-89"/>
<text text-anchor="middle" x="757" y="-67.3" font-family="Times,serif" font-size="14.00">DOUT</text>
</g>
<!-- add_l2_0_reg_s3_l2&#45;&gt;DOUT -->
<g id="edge9" class="edge">
<title>add_l2_0_reg_s3_l2&#45;&gt;DOUT</title>
<path fill="none" stroke="black" d="M691.32,-71C699.23,-71 708.09,-71 716.65,-71"/>
<polygon fill="black" stroke="black" points="716.87,-74.5 726.87,-71 716.87,-67.5 716.87,-74.5"/>
</g>
</g>
</svg>
